<svg width="56" height="56" xmlns="http://www.w3.org/2000/svg">
 <!-- Created with Method Draw - http://github.com/duopixel/Method-Draw/ -->
 <g>
  <title>background</title>
  <rect fill="#fff" id="canvas_background" height="58" width="58" y="-1" x="-1"/>
  <g display="none" overflow="visible" y="0" x="0" height="100%" width="100%" id="canvasGrid">
   <rect fill="url(#gridpattern)" stroke-width="0" y="0" x="0" height="100%" width="100%"/>
  </g>
 </g>
 <g>
  <title>Layer 1</title>
  <style type="text/css">
	.st0{fill:#EB6100;}
	.st1{fill:#868687;}
  <path class="st0" d="M454.1,257.6l7.2,27.6L422,295.8c0.6,2.4,0.8,4.9,0.8,7.5c0,17.6-12.6,36.8-32.2,36.8  c-16.8,0-25.8-11.6-25.8-26.4c0-17.6,12.6-36.8,32.2-36.8c1.7,0,3.3,0.1,4.8,0.4l-13,22.1l66.2-17.9l-17.1-65.6l-13.8,23.3  c-7.4-2.2-15.4-3.5-24.1-3.5c-47,0-82.4,38.8-82.4,82.2c0,35.8,28.4,63.4,69.6,63.4c47,0,82.4-38.8,82.4-82.2  C469.8,283,464.1,268.6,454.1,257.6"/>
<path class="st1" d="M99.4,387.9h32l-2.8,10.3h-19.7l-1,3.8h18.4l-2.4,9.1h-18.4l-1.1,4.1h20l-2.7,10.3H89.3L99.4,387.9z   M223.2,425.5h12.6l7.3-26.9H254l2.8-10.6h-34.7l-2.8,10.6h11.1L223.2,425.5z M397.4,425.5H410l10.1-37.6h-12.6L397.4,425.5z   M448.6,425.5h32.3l2.7-10.3h-20l1.1-4.1h18.4l2.4-9.1h-18.4l1-3.8h19.7l2.8-10.3h-32L448.6,425.5z"/>
<path class="st1" d="M30.3,387.9h31.5l-2.9,10.7H40l-1.3,4.8h17.6l-2.6,9.8H36.1l-3.3,12.3H20.2L30.3,387.9z M53,425.5h12.6  l2.9-10.7h3.1l4.2,10.7h13.5L84.1,413c7.4-2.3,10.5-7.4,10.5-13.2c0-3-0.9-5.7-3-7.8c-2.5-2.5-6.9-4-13.9-4H63.1L53,425.5z   M70.8,405.8l2-7.4h4.5c1.8,0,3,0.4,3.7,1.1c0.5,0.5,0.8,1.2,0.8,2c0,2.4-2.2,4.3-6.4,4.3H70.8z M123.7,425.5h12.6l10.1-37.6h-12.6  L123.7,425.5z M141.7,409.6c0,11.8,9.2,16.8,18.6,16.8c5.4,0,10.7-1.7,14.4-3.9l5.4-19.2H162l-2,8.1h6.2l-1.2,4  c-0.9,0.4-1.9,0.6-3.3,0.6c-3.9,0-7.3-2.3-7.3-7c0-6.1,4.2-10.9,11.4-10.9c3.3,0,6.6,1.4,8.7,3.4l7.8-8.1c-2.6-3.2-8.6-6.2-15.7-6.2  C151.4,387.1,141.7,397.3,141.7,409.6 M176.1,425.5h12.6l3.6-13.5h11.5l-3.6,13.5h12.6l10.1-37.6h-12.6l-3.6,13.3h-11.5l3.6-13.3  h-12.6L176.1,425.5z M257.7,419.5c4.6,4.1,11.1,6.8,18.5,6.8c10.8,0,17-5.9,17-13.5c0-5.7-4.1-8.4-10.5-10.8c-5.2-1.9-6-2.1-6-3.3  c0-1.1,1.1-1.5,2.7-1.5c4,0,8,1.9,10.8,4.2l7.2-8.6c-4.1-3.5-10-5.6-16.8-5.6c-10.3,0-16.9,5.9-16.9,13.1c0,5.5,3.3,8,10.3,10.6  c5.5,2,6.2,2.4,6.2,3.6c0,1.1-1.1,1.7-2.7,1.7c-4,0-8.4-1.7-12.7-5.3L257.7,419.5 M290.9,425.5h32.3l2.7-10.3h-20l1.1-4.1h18.4  l2.4-9.1h-18.4l1-3.8h19.7l2.8-10.3h-32L290.9,425.5z M325.3,425.5h12.6l2.9-10.7h3.1l4.2,10.7h13.5l-5.2-12.5  c7.4-2.3,10.5-7.4,10.5-13.2c0-3-0.9-5.7-3-7.8c-2.5-2.5-6.9-4-13.9-4h-14.7L325.3,425.5z M343.1,405.8l2-7.4h4.5  c1.8,0,3,0.4,3.7,1.1c0.5,0.5,0.8,1.2,0.8,2c0,2.4-2.2,4.3-6.4,4.3H343.1z M371.4,425.8h12l25.4-37.9h-14.1l-13,21.1l-1.6-21.1  h-13.8L371.4,425.8z M415.5,409.9c0,10.1,7.3,16.5,17.8,16.5c8,0,13.5-3.3,17.2-8.2l-8.7-6.9c-2,2.5-4.4,3.9-7.3,3.9  c-3.3,0-5.9-2.3-5.9-6.4c0-5.2,3.7-10.3,9.3-10.3c2.8,0,5,1.5,5.8,4.6l11.2-4.9c-1.6-6.7-7.3-11-15.4-11  C423.3,387.1,415.5,399.6,415.5,409.9 M482.4,419.5c4.6,4.1,11.1,6.8,18.5,6.8c10.8,0,17-5.9,17-13.5c0-5.7-4.1-8.4-10.5-10.8  c-5.2-1.9-6-2.1-6-3.3c0-1.1,1.1-1.5,2.7-1.5c4,0,8,1.9,10.8,4.2l7.2-8.6c-4.1-3.5-10-5.6-16.8-5.6c-10.3,0-16.9,5.9-16.9,13.1  c0,5.5,3.3,8,10.3,10.6c5.5,2,6.2,2.4,6.2,3.6c0,1.1-1.1,1.7-2.7,1.7c-4,0-8.4-1.7-12.7-5.3L482.4,419.5"/>
<path class="st0" d="M70.8,234.7h47.7c26.2,0,42.2,5.1,52.8,15.6c7.5,7.5,11.2,17.5,11.2,28.6c0,35.5-26.8,59.3-71.8,59.3H90.5  l-10.3,38.6H32.7L70.8,234.7z M108.1,304.3c18.1,0,26.4-8.1,26.4-18.9c0-3-1.2-6.1-3.4-8.3c-3.3-3.2-8.9-4.5-14.2-4.5h-8.9  l-8.3,31.7H108.1z M163.5,376.7H211l38.1-142h-47.5L163.5,376.7z M218,376.7h112.2l11-40.6h-64.7l27.2-101.5h-47.5L218,376.7z   M475,376.7h47.5l27.4-101.9h41.8l10.8-40.2H471.4l-10.8,40.2h41.8L475,376.7z M606.5,241.3c0-3.8,3-6.9,6.9-6.9  c3.8,0,6.8,3.1,6.8,6.8c0,3.8-3,6.9-6.9,6.9C609.5,248.1,606.5,245,606.5,241.3 M619.4,241.2c0-3.4-2.6-6.1-6-6.1  c-3.5,0-6.1,2.7-6.1,6.1c0,3.4,2.6,6.1,6,6.1C616.8,247.3,619.4,244.6,619.4,241.2 M610.5,237.4h3.2c1.7,0,2.9,0.9,2.9,2.4  c0,1.2-0.6,1.9-1.6,2.3l1.8,2.6H615l-1.6-2.4h-1.3v2.4h-1.6V237.4z M613.8,241c0.8,0,1.2-0.4,1.2-1.1c0-0.7-0.5-1.1-1.3-1.1h-1.6  v2.1H613.8z"/>
</style>
 </g>
</svg>